<svg width="33px" height="32px" viewBox="-2 0 33 32" version="1.1" xmlns="http://www.w3.org/2000/svg" xmlns:xlink="http://www.w3.org/1999/xlink">
    <!-- Generator: Sketch 41 (35326) - http://www.bohemiancoding.com/sketch -->
    <desc>Created with Sketch.</desc>
    <defs>
        <radialGradient cx="33.179754%" cy="36.7515281%" fx="33.179754%" fy="36.7515281%" r="59.7957392%" id="radialGradient-1">
            <stop stop-color="#EEEEEE" stop-opacity="0.2" offset="0%"></stop>
            <stop stop-color="#D8D8D8" stop-opacity="0.6" offset="100%"></stop>
        </radialGradient>
    </defs>
    <g id="L_ICON" stroke="none" stroke-width="1" fill="none" fill-rule="evenodd">
        <polygon id="Polygon" fill="#417505" points="14 0 27.8564065 8 27.8564065 24 14 32 0.143593539 24 0.143593539 8"></polygon>
        <path d="M14,0 L27.8564065,8 C27.8564065,8 22.0243861,13.9774846 15.0994163,17.9756178 C8.17444644,21.973751 0.143593539,24 0.143593539,24 L0.143593539,8 L14,0 Z" id="Polygon-2" fill-opacity="0.5" fill="url(#radialGradient-1)" style="mix-blend-mode: lighten;"></path>
        <g id="Group" transform="translate(6.000000, 8.000000)" fill="#FFFFFF">
            <rect id="Rectangle" x="0" y="0" width="3" height="17"></rect>
            <polygon id="Rectangle" points="8.875 1.77635684e-15 12.125 1.77635684e-15 7.25 13.4898165 4 13.4898165"></polygon>
            <polyline id="Rectangle" points="12.25 0 9 0 13.875 13.4898165 17.125 13.4898165"></polyline>
            <rect id="Rectangle-2" x="0" y="14" width="13" height="3"></rect>
        </g>
    </g>
</svg>
